<?xml version="1.0" standalone="no"?>
<!DOCTYPE svg PUBLIC "-//W3C//DTD SVG 20010904//EN"
 "http://www.w3.org/TR/2001/REC-SVG-20010904/DTD/svg10.dtd">
<svg version="1.0" xmlns="http://www.w3.org/2000/svg"
 width="675.000000pt" height="782.000000pt" viewBox="0 0 675.000000 782.000000"
 preserveAspectRatio="xMidYMid meet">
<metadata>
Created by potrace 1.16, written by Peter Selinger 2001-2019
</metadata>
<g transform="translate(0.000000,782.000000) scale(0.100000,-0.100000)"
fill="#000000" stroke="none">
<path d="M3754 7605 c-74 -16 -195 -65 -258 -105 -58 -37 -66 -37 -66 0 0 27
-3 30 -30 30 l-30 0 1 -157 c0 -87 4 -210 8 -273 8 -132 -5 -378 -21 -398 -8
-9 -45 -12 -145 -11 -186 2 -185 2 -183 -139 1 -59 1 -111 1 -117 -1 -6 -40
-9 -98 -9 l-98 2 -3 130 c-2 125 -3 130 -25 136 -36 9 -481 7 -496 -3 -19 -12
12 -20 94 -23 57 -3 60 -4 58 -28 l-3 -25 25 28 c21 24 31 27 87 27 35 0 68
-4 73 -8 6 -4 11 -57 12 -119 2 -153 2 -153 153 -153 l115 0 -3 -155 c-3 -136
-1 -155 12 -155 18 0 22 48 17 213 l-3 97 120 0 c66 0 127 3 136 6 25 9 19 22
-11 26 -27 3 -28 5 -34 80 -4 42 -9 92 -13 112 -5 28 -3 37 11 44 11 6 114 8
253 6 233 -4 270 -1 270 17 0 5 -46 9 -104 9 -81 0 -108 4 -120 15 -13 13 -15
40 -11 168 l5 152 78 42 c42 24 109 54 147 69 39 14 79 31 90 36 10 6 58 13
106 16 107 6 199 -14 316 -70 44 -21 136 -57 204 -79 118 -40 126 -41 228 -37
101 3 109 5 176 42 39 21 85 49 104 63 l33 26 -73 23 c-41 13 -98 28 -128 34
-30 5 -65 20 -77 31 l-23 22 94 101 c111 120 155 181 155 219 0 36 -10 34 -67
-9 -51 -39 -137 -84 -197 -104 -83 -27 -357 34 -455 100 -96 66 -258 87 -407
55z m-290 -214 c28 -31 37 -79 26 -148 -6 -34 -16 -75 -22 -90 -11 -26 -12
-21 -19 52 -4 44 -10 108 -14 143 -6 65 1 75 29 43z"/>
<path d="M3842 6685 c-3 -5 -4 -53 -3 -106 3 -117 -6 -139 -54 -139 -42 0 -46
6 -34 56 5 21 6 74 3 117 -6 67 -9 77 -26 77 -17 0 -18 -8 -16 -137 l3 -138
100 -3 100 -3 0 -161 c0 -118 3 -162 12 -165 10 -4 13 36 15 164 l3 168 98 3
c103 3 122 17 38 28 l-48 6 -6 102 c-2 55 -3 104 0 109 2 4 108 7 235 7 l230
0 -6 -217 c-6 -250 -13 -319 -32 -348 -14 -22 -64 -50 -104 -59 -18 -4 -25
-12 -26 -28 0 -13 -6 -95 -12 -183 -8 -107 -11 -380 -10 -825 l3 -665 27 -97
c39 -141 55 -171 159 -298 183 -222 259 -371 300 -583 l23 -118 -22 -44 c-26
-53 -69 -79 -115 -70 -18 4 -80 29 -138 56 -122 57 -196 69 -314 50 -78 -12
-230 -73 -296 -119 -83 -57 -147 -139 -217 -277 -34 -68 -55 -90 -127 -131
-40 -23 -62 -29 -110 -29 -113 0 -158 36 -281 225 -68 105 -128 160 -226 208
-130 63 -184 75 -308 70 -93 -5 -121 -11 -226 -49 -92 -33 -133 -43 -182 -44
-60 0 -65 2 -94 34 l-30 34 7 216 c8 251 -3 369 -40 447 -14 28 -25 56 -25 61
0 16 107 111 150 133 40 20 78 61 155 164 76 103 92 133 125 234 37 115 46
221 57 667 9 407 9 571 -3 770 l-9 159 -97 16 c-54 8 -102 20 -108 26 -17 17
-30 164 -36 384 -5 218 -9 249 -27 231 -7 -7 -12 -42 -12 -84 0 -40 -1 -106
-3 -148 l-2 -77 -34 -6 c-43 -8 -337 -150 -450 -216 -47 -27 -122 -81 -168
-118 -46 -38 -110 -88 -143 -112 -149 -109 -337 -327 -416 -482 -12 -24 -41
-69 -65 -102 -57 -75 -124 -198 -174 -319 -49 -116 -110 -345 -118 -445 l-7
-73 -60 -24 c-127 -52 -277 -180 -328 -281 -75 -149 -52 -331 59 -453 43 -48
146 -113 222 -140 29 -10 55 -21 60 -25 4 -4 7 -47 7 -94 1 -60 11 -134 34
-237 88 -402 252 -802 422 -1030 80 -108 205 -257 219 -263 4 -2 9 44 12 102
5 149 29 163 85 49 14 -29 30 -53 34 -53 5 0 11 12 14 28 15 72 27 102 40 102
8 0 15 -7 15 -15 0 -16 58 -203 68 -220 3 -5 15 22 27 60 11 37 25 70 32 72 6
2 21 -21 33 -54 12 -32 38 -78 59 -102 l38 -44 219 -4 c120 -2 228 -8 239 -13
30 -13 337 -21 490 -14 112 6 133 9 124 21 -9 9 -8 13 0 13 6 0 16 11 21 24 8
21 17 25 61 28 l51 3 20 50 c20 50 44 85 59 85 5 0 30 -27 56 -59 l47 -60 18
47 c26 69 99 172 127 179 30 7 37 -6 45 -76 11 -96 18 -131 25 -131 3 0 15 16
26 36 25 47 54 63 72 38 7 -10 13 -28 13 -40 0 -13 4 -34 10 -48 9 -24 14 -26
73 -26 50 0 70 -5 90 -20 25 -20 37 -21 299 -18 150 2 280 7 289 11 12 6 19 1
29 -23 23 -56 48 -66 157 -69 107 -2 459 17 483 26 28 11 -64 22 -188 22 -68
1 -132 6 -143 12 -11 6 -29 30 -39 54 -27 64 -79 84 -128 49 -19 -13 -27 -13
-57 -2 -28 10 -40 10 -55 0 -11 -7 -22 -12 -24 -12 -8 0 -105 174 -142 254
-19 42 -47 113 -63 159 -16 45 -36 102 -46 127 -13 35 -16 67 -13 141 3 91 6
100 40 155 45 73 95 97 203 97 155 0 251 -91 328 -316 36 -103 122 -298 196
-446 21 -42 53 -107 71 -146 49 -105 109 -163 96 -91 -5 28 -3 34 14 39 14 4
20 14 20 34 1 56 28 156 49 176 29 29 65 11 81 -40 19 -57 24 -58 44 -4 31 87
65 94 85 17 6 -24 11 -68 11 -95 0 -32 4 -51 12 -51 15 0 156 147 258 268 131
155 209 298 330 602 73 185 74 188 110 360 71 335 73 353 72 544 -4 377 -15
472 -98 814 -66 274 -257 739 -371 901 -212 303 -242 339 -382 464 -296 263
-331 289 -458 344 -65 28 -137 56 -160 63 l-43 11 -2 137 c-1 75 -1 156 1 180
1 28 -2 43 -11 44 -53 7 -671 1 -676 -7z m-2876 -2216 c110 -34 164 -67 245
-148 60 -61 199 -238 199 -255 0 -2 11 -17 24 -32 13 -16 50 -59 81 -97 58
-69 187 -187 206 -187 5 0 27 -17 47 -37 21 -21 57 -51 79 -66 30 -20 51 -46
73 -91 42 -85 49 -175 25 -329 -17 -108 -17 -118 -2 -159 31 -80 25 -83 -84
-37 -56 23 -94 32 -159 36 -47 2 -101 9 -120 15 -82 26 -319 203 -430 322 -36
38 -89 94 -117 123 -29 29 -53 57 -53 62 0 5 21 26 46 47 79 66 90 76 74 68
-8 -4 -32 -21 -52 -37 -49 -39 -210 -87 -293 -87 -208 0 -440 176 -466 353
-12 87 -7 90 146 84 66 -3 157 -11 202 -18 73 -12 93 -11 184 7 112 21 149 45
52 33 -99 -12 -232 -10 -329 7 -77 13 -109 14 -176 5 -45 -6 -83 -9 -85 -8 -2
2 6 34 17 70 33 107 112 199 252 291 130 86 273 109 414 65z m1058 -611 c30
-30 34 -43 51 -146 15 -97 17 -146 11 -332 -6 -183 -5 -223 7 -247 49 -94 166
-119 286 -62 136 64 297 91 406 69 88 -17 231 -90 286 -144 25 -26 65 -78 90
-117 24 -39 56 -86 72 -104 15 -18 27 -37 27 -42 0 -17 44 -51 95 -73 76 -33
139 -36 207 -10 88 33 149 95 209 212 68 131 135 203 237 256 122 63 173 76
288 77 l101 0 109 -55 c92 -46 119 -55 176 -58 61 -4 67 -2 78 19 7 13 23 35
35 49 13 14 25 39 27 55 2 25 8 31 32 33 37 5 49 -8 49 -56 0 -31 -10 -52 -43
-96 -41 -54 -145 -135 -179 -137 -9 -1 -32 -3 -52 -5 -29 -2 -51 6 -100 37
-121 76 -179 99 -265 105 -67 5 -88 3 -139 -17 -102 -38 -191 -141 -278 -321
-64 -132 -237 -219 -427 -217 -86 2 -130 19 -200 80 -48 41 -69 71 -117 162
-67 130 -115 182 -211 229 l-67 33 -160 0 -161 0 -119 -60 c-141 -70 -212 -82
-282 -47 -55 29 -107 90 -128 151 -14 44 -15 60 -5 118 7 38 15 110 17 161 4
78 1 105 -17 163 -26 79 -80 149 -142 180 -50 25 -54 38 -30 86 34 65 91 103
156 103 30 0 45 -7 70 -32z m3397 -723 c29 -28 31 -33 26 -88 -7 -82 -61 -168
-147 -234 -158 -121 -224 -147 -426 -168 -81 -8 -153 -20 -160 -26 -8 -6 -14
-6 -18 0 -3 5 14 33 40 63 57 67 142 206 150 246 4 17 1 45 -5 63 -9 28 -8 39
14 85 14 29 25 60 25 68 0 14 16 15 123 10 68 -3 142 -1 167 5 25 5 75 9 112
8 59 -2 71 -6 99 -32z m-3602 -131 c29 -13 58 -24 63 -24 6 0 37 -13 70 -30
32 -16 72 -30 88 -30 19 0 33 -7 40 -19 8 -16 4 -24 -29 -51 -47 -37 -181
-100 -212 -100 -12 0 -46 14 -75 31 -33 19 -78 34 -116 39 -73 11 -88 25 -88
85 0 66 17 103 53 114 80 25 125 22 206 -15z m2556 2 c33 -15 88 -45 124 -68
53 -33 75 -41 121 -43 59 -3 96 11 178 67 24 17 46 27 49 24 14 -14 2 -67 -26
-111 -17 -27 -31 -55 -31 -62 0 -7 -17 -34 -37 -61 -21 -27 -51 -66 -67 -88
-53 -69 -57 -70 -83 -16 -13 26 -22 57 -20 70 3 13 -1 22 -9 22 -7 0 -22 16
-34 35 -81 131 -240 176 -405 114 -72 -27 -131 -106 -149 -198 -8 -44 12 -197
30 -233 8 -15 14 -29 14 -32 0 -4 -24 -30 -53 -60 -61 -63 -91 -74 -229 -83
-131 -8 -136 -5 -81 54 46 49 123 193 123 231 0 11 18 41 40 67 22 25 62 90
91 145 71 139 150 223 237 251 50 16 154 4 217 -25z m-1506 -41 c81 -37 128
-90 192 -216 36 -72 69 -121 110 -164 l59 -62 -26 -39 c-38 -58 -103 -122
-152 -151 -35 -21 -50 -24 -87 -18 -25 3 -45 10 -45 14 0 4 9 33 20 65 40 117
35 243 -15 353 -25 56 -75 99 -155 136 -68 30 -175 28 -263 -7 -129 -50 -184
-104 -237 -234 -38 -91 -48 -103 -100 -127 l-39 -18 -52 30 c-68 38 -195 142
-208 170 -12 27 -9 30 93 74 50 21 94 48 116 72 33 34 39 37 64 27 15 -5 40
-10 56 -10 33 0 148 43 243 92 90 45 100 47 238 43 113 -3 134 -6 188 -30z
m-103 -109 c119 -65 154 -122 162 -262 5 -90 3 -96 -43 -231 l-47 -138 3 -170
4 -170 -164 -3 c-91 -1 -168 1 -173 6 -4 4 -12 32 -18 62 -16 83 -56 112 -106
76 -17 -13 -21 -12 -40 5 -16 15 -26 17 -51 10 -17 -5 -34 -7 -37 -3 -18 18 0
453 24 568 23 111 103 201 217 244 107 40 203 42 269 6z m-832 -268 c49 -47
234 -163 271 -170 19 -3 20 -10 18 -193 -2 -105 -3 -218 -3 -253 l0 -63 -127
3 -128 3 -5 35 c-7 37 -36 90 -52 90 -5 0 -20 -7 -34 -16 -13 -9 -26 -15 -27
-13 -1 2 -7 13 -13 24 -6 12 -25 22 -45 25 l-34 5 3 95 c5 170 22 318 43 374
23 62 53 105 72 102 7 -1 35 -22 61 -48z m1796 -117 c-53 -101 -112 -165 -165
-180 -82 -22 -505 -6 -505 20 0 4 16 17 35 29 19 12 35 26 35 31 0 5 11 14 24
20 13 6 36 33 51 60 14 27 30 51 36 54 5 4 40 -1 77 -10 112 -29 298 -3 398
55 64 37 67 23 14 -79z m-1485 49 c3 -5 3 -21 -1 -35 -7 -29 -38 -34 -69 -11
-18 13 -17 15 15 35 39 24 46 25 55 11z m1785 -164 c-14 -18 -50 -27 -50 -13
0 6 12 24 28 40 26 27 27 28 30 7 2 -12 -1 -27 -8 -34z m48 -98 c26 -68 96
-209 131 -262 52 -82 53 -82 -116 -79 -82 2 -153 5 -159 7 -5 2 -16 22 -22 44
-17 57 -48 92 -82 92 -15 0 -33 -7 -40 -15 -16 -19 -34 -19 -51 1 -10 12 -23
14 -54 10 l-40 -7 -24 85 c-13 46 -21 88 -18 93 4 6 59 13 124 16 87 4 138 12
193 31 41 13 90 25 108 25 30 1 35 -3 50 -41z m-2253 -251 c4 -18 5 -49 3 -68
-2 -26 -8 -35 -25 -37 -29 -4 -42 28 -38 89 3 54 0 49 30 49 19 0 25 -6 30
-33z m1892 25 c16 -10 43 -75 43 -102 0 -21 -32 -28 -59 -11 -14 9 -31 87 -23
109 4 14 21 15 39 4z m155 -33 c35 -74 34 -77 -22 -81 -29 -1 -54 -1 -56 1 -2
2 -4 24 -4 47 0 75 51 96 82 33z m-1543 17 c14 -17 32 -118 23 -127 -4 -4 -26
-9 -49 -13 l-42 -6 6 67 c3 38 10 74 16 81 13 16 32 15 46 -2z m130 -19 c5
-13 11 -44 12 -68 l4 -44 -44 -3 c-28 -2 -47 1 -52 10 -14 21 -10 82 7 106 21
30 62 29 73 -1z m-534 -9 c11 -50 9 -71 -7 -82 -39 -24 -69 24 -49 77 13 34
48 37 56 5z m2562 -43 c12 -9 27 -32 32 -52 12 -43 2 -55 -44 -51 -26 3 -32 9
-45 46 -14 41 -14 44 4 58 25 17 27 17 53 -1z m-89 -56 c22 -31 22 -34 5 -40
-32 -13 -71 -10 -77 7 -8 20 -8 69 0 77 12 12 50 -11 72 -44z"/>
<path d="M775 4320 c-12 -4 -27 -16 -35 -25 -14 -17 -13 -18 15 -11 17 4 49 9
73 13 43 6 54 16 26 27 -21 8 -54 7 -79 -4z"/>
<path d="M1334 3826 c-16 -41 24 -83 51 -55 12 12 14 21 6 42 -11 29 -48 37
-57 13z"/>
<path d="M1594 3626 c-10 -26 1 -51 23 -54 17 -3 24 3 29 22 3 14 3 30 -1 35
-9 16 -45 13 -51 -3z"/>
<path d="M1437 3593 c-13 -12 -7 -50 9 -64 18 -15 47 -2 52 23 6 29 -42 61
-61 41z"/>
<path d="M5117 3039 c-24 -33 2 -87 35 -74 21 8 40 53 33 76 -8 26 -50 25 -68
-2z"/>
<path d="M4950 2891 c-14 -28 -12 -48 5 -55 20 -7 55 28 55 54 0 27 -45 27
-60 1z"/>
<path d="M5117 2860 c-18 -26 -11 -60 13 -60 24 0 42 24 38 52 -4 30 -32 35
-51 8z"/>
<path d="M2594 2616 c-22 -34 -15 -70 14 -74 31 -5 52 15 52 47 0 51 -39 67
-66 27z"/>
<path d="M2705 2424 c-9 -9 -14 -23 -11 -31 3 -8 6 -17 6 -19 0 -14 41 0 54
18 27 38 -15 66 -49 32z"/>
<path d="M1928 2395 c-14 -31 0 -50 31 -40 30 9 30 65 1 65 -12 0 -25 -10 -32
-25z"/>
<path d="M4211 6441 c-33 -21 3 -31 109 -31 117 0 140 4 140 26 0 11 -24 14
-117 14 -65 0 -124 -4 -132 -9z"/>
<path d="M3260 6431 c0 -15 28 -21 92 -21 l60 0 -4 -85 c-2 -52 1 -85 7 -85 6
0 11 36 13 85 l3 84 111 3 c78 2 113 7 116 16 3 9 -41 12 -197 12 -111 0 -201
-4 -201 -9z"/>
<path d="M2337 6413 c-35 -9 -4 -23 54 -23 l59 0 0 -154 c0 -152 11 -210 24
-120 5 43 0 184 -9 246 l-4 27 77 3 c45 2 76 7 75 13 -3 10 -242 17 -276 8z"/>
<path d="M3406 6212 c-9 -15 6 -122 18 -122 16 0 15 122 -1 127 -6 2 -14 0
-17 -5z"/>
<path d="M2833 6043 c-233 -3 -297 -14 -162 -27 l72 -8 -6 -104 c-6 -91 -5
-104 9 -104 14 0 15 15 12 110 l-3 110 469 0 468 0 -6 -97 c-6 -107 2 -174 22
-181 11 -3 13 24 11 134 l-2 139 51 3 c51 3 67 14 36 26 -15 6 -447 5 -971 -1z"/>
<path d="M3850 6042 c-6 -2 -10 -8 -10 -13 0 -5 74 -9 171 -9 l170 0 -7 -135
c-7 -132 -7 -135 14 -135 20 0 21 3 17 135 l-4 135 50 0 c30 0 49 4 47 10 -3
10 -422 20 -448 12z"/>
<path d="M3162 5983 c-9 -15 -12 -60 -10 -130 3 -93 5 -108 21 -111 15 -3 17
7 16 105 -1 59 -4 119 -8 133 l-7 25 -12 -22z"/>
<path d="M2739 5773 c-1 -5 -2 -15 -3 -23 -1 -10 -17 -17 -53 -20 -48 -5 -72
-14 -62 -24 4 -4 344 -8 577 -7 83 1 102 4 102 16 0 13 -39 15 -267 17 l-268
3 -3 23 c-3 20 -21 32 -23 15z"/>
<path d="M3330 5715 c0 -11 12 -15 53 -15 l52 0 -4 -124 c-3 -128 3 -162 29
-146 12 7 12 29 3 137 -5 70 -9 129 -8 130 1 2 180 3 399 3 305 1 396 4 393
13 -3 9 -115 13 -460 15 -402 2 -457 0 -457 -13z"/>
<path d="M2934 5624 c-3 -31 -4 -97 0 -145 l7 -88 -156 -3 c-93 -2 -156 -7
-158 -13 -1 -6 74 -11 206 -13 180 -2 207 0 207 13 0 11 -11 15 -40 15 l-40 0
0 139 c0 145 -13 194 -26 95z"/>
<path d="M3951 5666 c-19 -23 -10 -251 10 -251 11 0 15 23 17 111 1 61 -1 121
-6 133 -7 20 -10 21 -21 7z"/>
<path d="M3080 5375 c0 -13 69 -15 582 -13 454 2 582 6 586 16 3 9 -118 12
-582 12 -516 0 -586 -2 -586 -15z"/>
<path d="M4187 5344 c-9 -9 -9 -256 -1 -278 3 -9 13 -16 20 -16 12 0 14 25 12
147 -3 137 -9 168 -31 147z"/>
<path d="M2757 5333 c-4 -3 -7 -69 -7 -145 0 -116 2 -138 15 -138 13 0 15 21
15 133 0 123 -7 167 -23 150z"/>
<path d="M3189 5323 c-9 -233 -4 -293 22 -293 15 0 7 302 -8 308 -7 2 -13 -5
-14 -15z"/>
<path d="M3727 5333 c-11 -10 -8 -293 3 -293 5 0 7 -7 4 -15 -4 -10 -20 -15
-49 -15 -53 0 -75 -8 -75 -26 0 -20 597 -21 625 -1 16 12 11 15 -45 20 -35 4
-150 7 -255 7 l-193 0 9 38 c10 42 12 252 3 276 -7 17 -16 20 -27 9z"/>
<path d="M2692 5003 c-52 -3 -72 -7 -69 -16 3 -9 122 -13 490 -15 482 -2 487
-2 487 18 0 20 -5 20 -417 18 -230 -1 -451 -4 -491 -5z"/>
<path d="M3981 4947 c-8 -10 -11 -56 -9 -153 3 -116 6 -139 18 -139 12 0 15
23 18 138 3 142 -4 181 -27 154z"/>
<path d="M3448 4943 c-2 -5 -2 -74 0 -155 3 -119 7 -148 18 -148 11 0 14 28
14 155 0 128 -2 155 -14 155 -8 0 -16 -3 -18 -7z"/>
<path d="M2953 4794 c2 -109 5 -148 15 -152 10 -3 12 27 10 144 -2 102 -7 149
-15 151 -9 3 -11 -34 -10 -143z"/>
<path d="M2584 4588 c-3 -5 -3 -12 0 -17 3 -5 172 -10 376 -10 l370 -2 0 21 0
22 -371 -4 c-204 -2 -373 -6 -375 -10z"/>
<path d="M3355 4590 c-4 -6 -3 -16 1 -20 11 -11 806 -15 847 -5 15 4 26 12 24
19 -5 16 -862 22 -872 6z"/>
<path d="M3766 4530 c-12 -29 -2 -303 12 -308 9 -3 12 28 11 135 -1 139 -10
203 -23 173z"/>
<path d="M2678 4437 c-3 -81 -7 -99 -36 -148 -18 -33 -30 -64 -26 -73 3 -9 10
-14 14 -11 20 12 71 116 79 162 12 62 3 163 -14 163 -9 0 -14 -28 -17 -93z"/>
<path d="M4205 4388 c0 -106 3 -142 13 -146 10 -3 12 26 10 139 -4 191 -23
198 -23 7z"/>
<path d="M3187 4478 c-11 -89 -7 -235 7 -247 11 -9 15 -5 20 20 8 40 8 232 0
253 -11 28 -22 17 -27 -26z"/>
<path d="M2490 4160 c-8 -5 -11 -12 -7 -16 4 -4 134 -9 289 -11 278 -3 310 0
292 29 -7 11 -556 10 -574 -2z"/>
<path d="M3090 4150 l0 -21 600 4 c330 2 603 7 607 10 3 4 3 10 -1 15 -4 4
-277 8 -607 10 l-599 4 0 -22z"/>
<path d="M2907 4093 c-4 -3 -7 -17 -7 -30 0 -33 -55 -188 -86 -240 -24 -42
-26 -82 -3 -67 40 24 119 215 119 287 0 35 -12 61 -23 50z"/>
<path d="M3497 4083 c-4 -3 -7 -73 -7 -155 0 -141 1 -148 20 -148 19 0 20 7
20 139 0 158 -7 191 -33 164z"/>
<path d="M2388 3991 c-27 -43 -64 -98 -83 -121 -19 -23 -35 -46 -35 -51 0 -41
90 63 136 157 50 101 39 110 -18 15z"/>
<path d="M4047 4036 c-14 -35 -6 -82 22 -142 31 -67 85 -134 107 -134 22 0 17
16 -21 66 -48 62 -65 97 -85 168 -12 42 -19 54 -23 42z"/>
<path d="M2218 3713 c-44 -11 -10 -21 90 -27 59 -3 596 -5 1195 -4 1036 2
1087 3 1087 20 0 17 -54 18 -1177 17 -648 -1 -1186 -4 -1195 -6z"/>
<path d="M4479 3660 c-3 -35 4 -59 38 -125 38 -76 61 -101 77 -85 6 6 4 16 -7
28 -9 10 -25 39 -37 64 -31 71 -70 135 -71 118z"/>
<path d="M3877 3647 c-11 -30 25 -164 54 -201 36 -46 40 -15 9 74 -16 47 -30
92 -30 101 0 23 -26 44 -33 26z"/>
<path d="M2482 3637 c-2 -19 -52 -119 -102 -204 -37 -65 -15 -61 33 6 46 64
79 146 74 184 -2 18 -5 24 -5 14z"/>
<path d="M3079 3583 c-9 -32 -33 -94 -52 -138 -20 -43 -34 -81 -31 -84 20 -20
104 154 112 232 6 65 -10 59 -29 -10z"/>
<path d="M3955 3361 c-14 -6 -3 -10 40 -14 81 -9 661 -11 674 -2 6 3 11 10 11
16 0 11 -696 11 -725 0z"/>
<path d="M2293 3331 c-56 -3 -104 -9 -108 -12 -18 -19 436 -34 488 -16 97 33
-70 45 -380 28z"/>
<path d="M2892 3304 c-20 -15 232 -21 571 -16 202 4 237 7 237 20 0 13 -49 14
-396 11 -274 -3 -402 -8 -412 -15z"/>
<path d="M3720 3303 c0 -21 25 -26 77 -17 74 14 67 34 -11 32 -47 -2 -66 -6
-66 -15z"/>
<path d="M3468 3245 c-1 -5 -2 -101 -2 -213 -1 -192 0 -202 16 -182 9 11 20
41 24 66 11 74 -25 388 -38 329z"/>
<path d="M4226 2725 c-29 -30 10 -70 52 -54 24 9 29 38 10 57 -16 16 -44 15
-62 -3z"/>
<path d="M4370 2621 c-14 -27 3 -61 30 -61 25 0 31 11 21 46 -9 35 -36 43 -51
15z"/>
<path d="M4307 2514 c-13 -13 -7 -61 9 -74 12 -11 18 -11 31 2 13 14 13 20 2
44 -15 29 -30 39 -42 28z"/>
<path d="M1663 1703 c-12 -2 -33 -16 -47 -30 -21 -20 -26 -36 -26 -73 0 -56
25 -93 73 -109 54 -18 127 11 127 50 0 20 -15 25 -25 9 -3 -5 -19 -10 -35 -10
-47 0 -82 57 -64 104 9 23 57 20 79 -4 21 -23 43 -26 51 -6 10 25 -15 55 -54
66 -38 10 -41 10 -79 3z"/>
<path d="M1883 1699 c-64 -19 -92 -94 -59 -157 38 -74 164 -74 202 0 32 62 10
128 -52 154 -38 16 -46 16 -91 3z m63 -64 c35 -53 11 -130 -30 -96 -20 17 -41
84 -33 105 9 24 45 19 63 -9z"/>
<path d="M2054 1699 c-3 -6 -1 -16 5 -22 6 -6 11 -43 11 -82 0 -39 -5 -76 -11
-82 -17 -17 -2 -33 31 -33 33 0 48 16 31 33 -13 13 -15 67 -3 67 5 0 17 -18
27 -40 10 -22 22 -40 26 -40 5 0 18 18 29 40 11 22 25 40 30 40 16 0 12 -42
-6 -61 -24 -26 -9 -39 46 -39 50 0 71 13 51 33 -6 6 -11 43 -11 82 0 39 5 76
11 82 16 16 2 33 -29 33 -37 0 -46 -8 -72 -60 l-23 -44 -24 29 c-13 17 -32 40
-43 53 -19 23 -64 30 -76 11z"/>
<path d="M2343 1697 c-3 -5 0 -14 6 -20 6 -6 11 -43 11 -82 0 -39 -5 -76 -11
-82 -20 -20 1 -33 51 -33 55 0 66 9 45 36 -23 30 -18 41 23 49 20 4 45 14 55
22 33 30 14 111 -26 114 -61 5 -150 3 -154 -4z m122 -62 c0 -20 -6 -31 -17
-33 -15 -3 -18 4 -18 33 0 29 3 36 18 33 11 -2 17 -13 17 -33z"/>
<path d="M2610 1697 c-29 -10 -36 -18 -38 -44 -4 -41 20 -45 44 -7 22 33 59
30 59 -5 0 -21 -7 -27 -46 -36 -64 -17 -69 -21 -69 -60 0 -50 36 -72 90 -56
30 9 45 9 61 1 22 -12 69 -6 69 9 0 5 -7 14 -15 21 -10 9 -15 32 -15 75 0 45
-5 69 -17 84 -22 27 -77 35 -123 18z m70 -141 c0 -32 -18 -43 -37 -23 -20 20
-10 47 17 47 15 0 20 -7 20 -24z"/>
<path d="M2794 1697 c-20 -11 -19 -67 1 -67 9 0 18 7 21 15 4 8 12 15 20 15
17 0 20 -130 3 -147 -20 -20 1 -33 51 -33 55 0 70 13 46 39 -18 20 -23 126 -5
136 5 4 18 0 28 -9 10 -9 23 -16 29 -16 17 0 15 45 -2 59 -17 14 -170 20 -192
8z"/>
<path d="M3004 1698 c-4 -5 -1 -15 5 -21 6 -6 11 -43 11 -82 0 -39 -5 -76 -11
-82 -20 -20 1 -33 50 -33 58 0 66 6 45 38 -15 22 -16 97 -3 167 4 17 -2 20
-44 21 -26 1 -50 -3 -53 -8z"/>
<path d="M3144 1698 c-4 -5 -1 -15 5 -21 6 -6 11 -43 11 -82 0 -39 -5 -76 -11
-82 -6 -6 -9 -15 -6 -20 8 -13 175 -7 192 7 20 16 19 69 -1 91 -12 14 -13 21
-3 37 15 25 6 50 -23 61 -36 13 -157 20 -164 9z m123 -72 c-4 -9 -11 -16 -17
-16 -15 0 -24 26 -16 47 6 15 8 15 23 1 9 -9 13 -24 10 -32z m-2 -76 c0 -27
-22 -39 -31 -16 -8 22 3 49 19 43 6 -2 12 -14 12 -27z"/>
<path d="M3364 1698 c-4 -5 -1 -15 5 -21 6 -6 11 -43 11 -82 0 -39 -5 -76 -11
-82 -24 -24 2 -33 80 -29 43 2 84 6 90 10 13 9 15 66 1 66 -5 0 -14 -9 -20
-21 -8 -14 -19 -19 -38 -17 -27 3 -27 4 -26 73 1 39 3 79 5 90 4 17 -2 20 -44
21 -26 1 -50 -3 -53 -8z"/>
<path d="M3624 1701 c-39 -17 -64 -60 -64 -111 0 -41 4 -52 30 -73 16 -14 43
-28 60 -32 40 -9 104 22 108 52 3 20 1 21 -27 10 -36 -13 -86 0 -86 23 0 11
10 14 35 13 62 -4 80 4 80 37 0 58 -78 105 -136 81z m64 -64 c3 -23 0 -27 -22
-27 -21 0 -26 5 -26 23 0 13 3 27 7 31 15 14 38 0 41 -27z"/>
<path d="M3890 1691 c0 -10 3 -21 8 -25 4 -4 23 -46 42 -94 22 -55 41 -87 50
-87 8 0 26 21 40 47 14 27 28 48 32 48 4 0 18 -21 30 -47 13 -27 29 -48 37
-48 8 0 27 34 45 82 17 44 40 91 50 102 24 27 11 44 -30 39 -24 -2 -29 -7 -26
-28 3 -27 -16 -80 -28 -80 -12 0 -29 52 -27 80 2 23 -1 25 -38 25 l-40 0 3
-40 c1 -22 -2 -47 -8 -55 -16 -24 -42 17 -38 60 l3 35 -52 2 c-45 1 -53 -1
-53 -16z"/>
<path d="M4264 1698 c-4 -5 -1 -15 5 -21 6 -6 11 -43 11 -82 0 -39 -5 -76 -11
-82 -20 -20 1 -33 50 -33 58 0 66 6 45 38 -15 22 -16 97 -3 167 4 17 -2 20
-44 21 -26 1 -50 -3 -53 -8z"/>
<path d="M4394 1697 c-20 -11 -19 -67 1 -67 9 0 18 7 21 15 4 8 12 15 20 15
17 0 20 -130 3 -147 -20 -20 1 -33 51 -33 55 0 70 13 46 39 -18 20 -23 126 -5
136 5 4 18 0 28 -9 10 -9 23 -16 29 -16 17 0 15 45 -2 59 -17 14 -170 20 -192
8z"/>
<path d="M4614 1698 c-4 -5 -1 -15 5 -21 6 -6 11 -43 11 -82 0 -39 -5 -76 -11
-82 -19 -19 0 -33 46 -33 47 0 64 13 45 35 -21 25 -8 60 23 63 32 4 46 -21 29
-49 -24 -38 -15 -49 37 -49 56 0 71 13 47 39 -11 12 -16 37 -16 76 0 39 5 64
16 76 24 26 9 38 -44 35 -40 -2 -47 -6 -44 -22 9 -55 8 -59 -25 -62 -29 -3
-33 0 -33 22 0 14 5 28 11 31 5 4 8 12 6 18 -4 14 -95 18 -103 5z"/>
<path d="M2875 1314 c-315 -70 -465 -367 -330 -652 131 -277 481 -371 745
-202 239 153 282 506 88 716 -116 126 -315 180 -503 138z m131 -215 c99 -61
188 -340 140 -441 -52 -108 -180 -78 -242 57 -51 111 -78 286 -54 345 25 61
93 78 156 39z"/>
<path d="M5438 1318 c-110 -8 -183 -29 -244 -70 -62 -43 -86 -89 -85 -169 0
-75 18 -106 67 -115 54 -10 95 15 154 93 62 81 92 103 146 103 55 0 85 -32 92
-100 9 -92 -19 -110 -200 -129 -156 -15 -254 -71 -293 -165 -21 -49 -21 -167
-1 -224 38 -106 106 -153 231 -160 94 -5 170 13 251 59 63 36 74 36 105 3 40
-44 95 -64 179 -63 168 1 211 64 109 162 -21 21 -41 48 -44 60 -2 12 -6 123
-8 247 -5 275 -13 310 -90 385 -77 74 -180 98 -369 83z m118 -529 c15 -17 19
-36 18 -89 0 -76 -19 -116 -58 -126 -91 -22 -153 140 -81 212 32 32 94 33 121
3z"/>
<path d="M704 1301 c-117 -71 -161 -287 -67 -330 47 -21 65 -13 140 65 120
126 133 107 133 -204 0 -247 -1 -253 -64 -309 -46 -40 -50 -90 -10 -122 25
-20 39 -21 236 -21 208 0 209 0 233 25 38 37 32 67 -25 130 l-50 55 0 243 c0
188 3 247 13 262 23 30 61 12 108 -51 65 -85 115 -103 165 -61 72 62 16 269
-88 323 -29 15 -48 16 -213 4 -136 -9 -206 -10 -289 -1 -151 15 -186 14 -222
-8z"/>
<path d="M1595 1298 c-28 -16 -35 -28 -35 -63 0 -23 11 -41 45 -73 l45 -42 0
-266 0 -265 -50 -53 c-58 -61 -64 -93 -25 -131 24 -25 24 -25 235 -25 211 0
211 0 235 25 38 37 32 67 -24 129 -53 59 -68 101 -57 161 8 42 30 65 61 65 39
0 69 -48 89 -141 22 -102 55 -170 98 -202 118 -88 368 -63 368 37 0 16 -13 34
-40 56 -41 32 -45 42 -79 185 -14 59 -48 106 -102 142 l-40 26 39 37 c51 46
73 99 74 176 2 99 -45 165 -154 214 -40 18 -66 20 -353 19 -213 0 -316 -3
-330 -11z m439 -148 c34 -13 56 -59 56 -120 0 -44 -5 -56 -29 -81 -31 -31 -59
-37 -79 -17 -8 8 -12 47 -12 108 0 116 9 131 64 110z"/>
<path d="M3506 1289 c-40 -32 -35 -69 18 -122 29 -28 47 -56 51 -78 3 -19 5
-139 3 -266 l-3 -231 -52 -55 c-58 -61 -65 -89 -34 -128 19 -24 22 -24 233
-27 205 -3 215 -2 241 18 44 35 37 76 -23 137 l-50 51 0 266 0 266 45 42 c34
32 45 50 45 73 -1 69 -22 75 -253 75 -181 0 -196 -1 -221 -21z"/>
<path d="M4060 1290 c-35 -35 -27 -79 25 -128 l45 -42 0 -265 0 -265 -50 -51
c-60 -61 -67 -104 -24 -138 25 -20 39 -21 236 -21 208 0 209 0 233 25 37 36
32 68 -19 123 -50 54 -66 87 -66 138 0 86 64 124 115 69 13 -15 38 -71 55
-125 57 -177 109 -220 275 -228 51 -2 109 1 133 7 82 22 93 95 21 132 -46 23
-60 42 -94 134 -47 126 -99 189 -204 248 l-42 24 34 26 c19 15 55 58 81 96 45
69 47 70 116 91 43 13 75 29 85 43 22 32 19 74 -10 102 -24 25 -27 25 -197 25
-198 0 -218 -6 -218 -65 0 -19 5 -45 11 -59 15 -33 5 -68 -33 -111 -80 -92
-147 -74 -118 30 7 24 25 56 41 71 22 21 29 37 29 65 0 65 -15 69 -242 69
-185 0 -199 -1 -218 -20z"/>
</g>
</svg>
